<?xml version="1.0" encoding="UTF-8" standalone="no"?>
<!DOCTYPE svg PUBLIC "-//W3C//DTD SVG 1.1//EN"
 "http://www.w3.org/Graphics/SVG/1.1/DTD/svg11.dtd">
<!-- Generated by graphviz version 2.47.0 (20210316.0004)
 -->
<!-- Title: dependencies Pages: 1 -->
<svg width="720pt" height="306pt"
 viewBox="0.00 0.00 720.00 306.00" xmlns="http://www.w3.org/2000/svg" xmlns:xlink="http://www.w3.org/1999/xlink">
<g id="graph0" class="graph" transform="scale(1 1) rotate(0) translate(4 302)">
<title>dependencies</title>
<polygon fill="white" stroke="transparent" points="-4,4 -4,-302 716,-302 716,4 -4,4"/>
<text text-anchor="start" x="335.01" y="-42.4" font-family="Times-12" font-weight="bold" font-size="14.00">Legend</text>
<polygon fill="#ffffb3" stroke="transparent" points="122,-10 122,-30 142,-30 142,-10 122,-10"/>
<text text-anchor="start" x="145.63" y="-15.4" font-family="Times-12" font-size="14.00"> &#160;Declarations</text>
<polygon fill="#8dd3c7" stroke="transparent" points="235,-10 235,-30 255,-30 255,-10 235,-10"/>
<text text-anchor="start" x="258.73" y="-15.4" font-family="Times-12" font-size="14.00"> &#160;Module</text>
<polygon fill="#80b1d3" stroke="transparent" points="321,-10 321,-30 341,-30 341,-10 321,-10"/>
<text text-anchor="start" x="344.78" y="-15.4" font-family="Times-12" font-size="14.00"> &#160;Bootstrap</text>
<polygon fill="#fdb462" stroke="transparent" points="418,-10 418,-30 438,-30 438,-10 418,-10"/>
<text text-anchor="start" x="441.67" y="-15.4" font-family="Times-12" font-size="14.00"> &#160;Providers</text>
<polygon fill="#fb8072" stroke="transparent" points="514,-10 514,-30 534,-30 534,-10 514,-10"/>
<text text-anchor="start" x="537.73" y="-15.4" font-family="Times-12" font-size="14.00"> &#160;Exports</text>
<g id="clust1" class="cluster">
<title>cluster_AppModule</title>
<polygon fill="none" stroke="black" stroke-dasharray="1,5" points="8,-146 8,-282 434,-282 434,-146 8,-146"/>
</g>
<g id="clust3" class="cluster">
<title>cluster_AppModule_imports</title>
<polygon fill="none" stroke="black" points="218,-154 218,-206 426,-206 426,-154 218,-154"/>
</g>
<g id="clust6" class="cluster">
<title>cluster_AppModule_providers</title>
<polygon fill="none" stroke="black" points="16,-154 16,-206 210,-206 210,-154 16,-154"/>
</g>
<g id="clust7" class="cluster">
<title>cluster_AuthModule</title>
<polygon fill="none" stroke="black" stroke-dasharray="1,5" points="42,-70 42,-138 582,-138 582,-70 42,-70"/>
</g>
<g id="clust9" class="cluster">
<title>cluster_AuthModule_imports</title>
<polygon fill="none" stroke="black" points="472,-78 472,-130 574,-130 574,-78 472,-78"/>
</g>
<g id="clust12" class="cluster">
<title>cluster_AuthModule_providers</title>
<polygon fill="none" stroke="black" points="50,-78 50,-130 464,-130 464,-78 50,-78"/>
</g>
<g id="clust13" class="cluster">
<title>cluster_TaskModule</title>
<polygon fill="none" stroke="black" stroke-dasharray="1,5" points="442,-222 442,-290 704,-290 704,-222 442,-222"/>
</g>
<g id="clust16" class="cluster">
<title>cluster_TaskModule_exports</title>
<polygon fill="none" stroke="black" points="592,-230 592,-282 696,-282 696,-230 592,-230"/>
</g>
<g id="clust18" class="cluster">
<title>cluster_TaskModule_providers</title>
<polygon fill="none" stroke="black" points="450,-230 450,-282 584,-282 584,-230 450,-230"/>
</g>
<g id="clust19" class="cluster">
<title>cluster_UserModule</title>
<polygon fill="none" stroke="black" stroke-dasharray="1,5" points="443,-146 443,-214 703,-214 703,-146 443,-146"/>
</g>
<g id="clust22" class="cluster">
<title>cluster_UserModule_exports</title>
<polygon fill="none" stroke="black" points="591,-154 591,-206 695,-206 695,-154 591,-154"/>
</g>
<g id="clust24" class="cluster">
<title>cluster_UserModule_providers</title>
<polygon fill="none" stroke="black" points="451,-154 451,-206 583,-206 583,-154 451,-154"/>
</g>
<!-- AuthModule -->
<g id="node1" class="node">
<title>AuthModule</title>
<polygon fill="#8dd3c7" stroke="black" points="313.55,-198 310.55,-202 289.55,-202 286.55,-198 226.45,-198 226.45,-162 313.55,-162 313.55,-198"/>
<text text-anchor="middle" x="270" y="-175.8" font-family="Times,serif" font-size="14.00">AuthModule</text>
</g>
<!-- AppModule -->
<g id="node3" class="node">
<title>AppModule</title>
<polygon fill="#8dd3c7" stroke="black" points="311.66,-274 308.66,-278 287.66,-278 284.66,-274 228.34,-274 228.34,-238 311.66,-238 311.66,-274"/>
<text text-anchor="middle" x="270" y="-251.8" font-family="Times,serif" font-size="14.00">AppModule</text>
</g>
<!-- AuthModule&#45;&gt;AppModule -->
<g id="edge1" class="edge">
<title>AuthModule&#45;&gt;AppModule</title>
<path fill="none" stroke="black" d="M270,-198.01C270,-198.01 270,-227.85 270,-227.85"/>
<polygon fill="black" stroke="black" points="266.5,-227.85 270,-237.85 273.5,-227.85 266.5,-227.85"/>
</g>
<!-- TaskModule -->
<g id="node2" class="node">
<title>TaskModule</title>
<polygon fill="#8dd3c7" stroke="black" points="418.26,-198 415.26,-202 394.26,-202 391.26,-198 331.74,-198 331.74,-162 418.26,-162 418.26,-198"/>
<text text-anchor="middle" x="375" y="-175.8" font-family="Times,serif" font-size="14.00">TaskModule</text>
</g>
<!-- TaskModule&#45;&gt;AppModule -->
<g id="edge2" class="edge">
<title>TaskModule&#45;&gt;AppModule</title>
<path fill="none" stroke="black" d="M375,-198.2C375,-222.36 375,-262 375,-262 375,-262 321.8,-262 321.8,-262"/>
<polygon fill="black" stroke="black" points="321.8,-258.5 311.8,-262 321.8,-265.5 321.8,-258.5"/>
</g>
<!-- TaskService  -->
<g id="node9" class="node">
<title>TaskService </title>
<polygon fill="#fb8072" stroke="black" points="688.19,-274 599.81,-274 599.81,-238 688.19,-238 688.19,-274"/>
<text text-anchor="middle" x="644" y="-251.8" font-family="Times,serif" font-size="14.00">TaskService </text>
</g>
<!-- TaskModule&#45;&gt;TaskService  -->
<g id="edge8" class="edge">
<title>TaskModule&#45;&gt;TaskService </title>
<path fill="none" stroke="black" stroke-dasharray="5,2" d="M353.31,-198.11C353.31,-207.9 353.31,-218 353.31,-218 353.31,-218 643.3,-218 643.3,-218 643.3,-218 643.3,-227.89 643.3,-227.89"/>
<polygon fill="black" stroke="black" points="639.8,-227.89 643.3,-237.89 646.8,-227.89 639.8,-227.89"/>
</g>
<!-- InitializationService -->
<g id="node4" class="node">
<title>InitializationService</title>
<ellipse fill="#fdb462" stroke="black" cx="113" cy="-180" rx="89.18" ry="18"/>
<text text-anchor="middle" x="113" y="-175.8" font-family="Times,serif" font-size="14.00">InitializationService</text>
</g>
<!-- InitializationService&#45;&gt;AppModule -->
<g id="edge3" class="edge">
<title>InitializationService&#45;&gt;AppModule</title>
<path fill="none" stroke="black" d="M113,-198.01C113,-220.49 113,-256 113,-256 113,-256 218.34,-256 218.34,-256"/>
<polygon fill="black" stroke="black" points="218.34,-259.5 228.34,-256 218.34,-252.5 218.34,-259.5"/>
</g>
<!-- UserModule -->
<g id="node5" class="node">
<title>UserModule</title>
<polygon fill="#8dd3c7" stroke="black" points="565.98,-122 562.98,-126 541.98,-126 538.98,-122 480.02,-122 480.02,-86 565.98,-86 565.98,-122"/>
<text text-anchor="middle" x="523" y="-99.8" font-family="Times,serif" font-size="14.00">UserModule</text>
</g>
<!-- UserModule&#45;&gt;AuthModule -->
<g id="edge4" class="edge">
<title>UserModule&#45;&gt;AuthModule</title>
<path fill="none" stroke="black" d="M508.67,-122.24C508.67,-129.43 508.67,-136 508.67,-136 508.67,-136 291.89,-136 291.89,-136 291.89,-136 291.89,-151.85 291.89,-151.85"/>
<polygon fill="black" stroke="black" points="288.39,-151.85 291.89,-161.85 295.39,-151.85 288.39,-151.85"/>
</g>
<!-- UserService  -->
<g id="node11" class="node">
<title>UserService </title>
<polygon fill="#fb8072" stroke="black" points="686.9,-198 599.1,-198 599.1,-162 686.9,-162 686.9,-198"/>
<text text-anchor="middle" x="643" y="-175.8" font-family="Times,serif" font-size="14.00">UserService </text>
</g>
<!-- UserModule&#45;&gt;UserService  -->
<g id="edge10" class="edge">
<title>UserModule&#45;&gt;UserService </title>
<path fill="none" stroke="black" stroke-dasharray="5,2" d="M565.98,-104C600.42,-104 643,-104 643,-104 643,-104 643,-151.99 643,-151.99"/>
<polygon fill="black" stroke="black" points="639.5,-151.99 643,-161.99 646.5,-151.99 639.5,-151.99"/>
</g>
<!-- AuthService -->
<g id="node6" class="node">
<title>AuthService</title>
<ellipse fill="#fdb462" stroke="black" cx="397" cy="-104" rx="59.11" ry="18"/>
<text text-anchor="middle" x="397" y="-99.8" font-family="Times,serif" font-size="14.00">AuthService</text>
</g>
<!-- AuthService&#45;&gt;AuthModule -->
<g id="edge5" class="edge">
<title>AuthService&#45;&gt;AuthModule</title>
<path fill="none" stroke="black" d="M337.41,-104C330.37,-104 325.62,-104 325.62,-104 325.62,-104 325.62,-180 325.62,-180 325.62,-180 323.55,-180 323.55,-180"/>
<polygon fill="black" stroke="black" points="323.55,-176.5 313.55,-180 323.55,-183.5 323.55,-176.5"/>
</g>
<!-- JwtStrategy -->
<g id="node7" class="node">
<title>JwtStrategy</title>
<ellipse fill="#fdb462" stroke="black" cx="263" cy="-104" rx="56.76" ry="18"/>
<text text-anchor="middle" x="263" y="-99.8" font-family="Times,serif" font-size="14.00">JwtStrategy</text>
</g>
<!-- JwtStrategy&#45;&gt;AuthModule -->
<g id="edge6" class="edge">
<title>JwtStrategy&#45;&gt;AuthModule</title>
<path fill="none" stroke="black" d="M270,-122.01C270,-122.01 270,-151.85 270,-151.85"/>
<polygon fill="black" stroke="black" points="266.5,-151.85 270,-161.85 273.5,-151.85 266.5,-151.85"/>
</g>
<!-- LocalStrategy -->
<g id="node8" class="node">
<title>LocalStrategy</title>
<ellipse fill="#fdb462" stroke="black" cx="123" cy="-104" rx="65.41" ry="18"/>
<text text-anchor="middle" x="123" y="-99.8" font-family="Times,serif" font-size="14.00">LocalStrategy</text>
</g>
<!-- LocalStrategy&#45;&gt;AuthModule -->
<g id="edge7" class="edge">
<title>LocalStrategy&#45;&gt;AuthModule</title>
<path fill="none" stroke="black" d="M123,-122.04C123,-134.56 123,-149 123,-149 123,-149 248.11,-149 248.11,-149 248.11,-149 248.11,-151.97 248.11,-151.97"/>
<polygon fill="black" stroke="black" points="244.61,-151.97 248.11,-161.97 251.61,-151.97 244.61,-151.97"/>
</g>
<!-- TaskService -->
<g id="node10" class="node">
<title>TaskService</title>
<ellipse fill="#fdb462" stroke="black" cx="517" cy="-256" rx="58.53" ry="18"/>
<text text-anchor="middle" x="517" y="-251.8" font-family="Times,serif" font-size="14.00">TaskService</text>
</g>
<!-- TaskService&#45;&gt;TaskModule -->
<g id="edge9" class="edge">
<title>TaskService&#45;&gt;TaskModule</title>
<path fill="none" stroke="black" d="M461.42,-250C429.9,-250 396.69,-250 396.69,-250 396.69,-250 396.69,-208.03 396.69,-208.03"/>
<polygon fill="black" stroke="black" points="400.19,-208.03 396.69,-198.03 393.19,-208.03 400.19,-208.03"/>
</g>
<!-- UserService -->
<g id="node12" class="node">
<title>UserService</title>
<ellipse fill="#fdb462" stroke="black" cx="517" cy="-180" rx="58.44" ry="18"/>
<text text-anchor="middle" x="517" y="-175.8" font-family="Times,serif" font-size="14.00">UserService</text>
</g>
<!-- UserService&#45;&gt;UserModule -->
<g id="edge11" class="edge">
<title>UserService&#45;&gt;UserModule</title>
<path fill="none" stroke="black" d="M537.33,-162.75C537.33,-162.75 537.33,-132.24 537.33,-132.24"/>
<polygon fill="black" stroke="black" points="540.83,-132.24 537.33,-122.24 533.83,-132.24 540.83,-132.24"/>
</g>
</g>
</svg>
